<svg width="64" height="64" viewBox="0 0 64 64" xmlns="http://www.w3.org/2000/svg">
  <rect width="64" height="64" fill="#0A0A0A"/>
  <g fill="none" stroke="#F4F4F5" stroke-width="2.4" stroke-linecap="round" stroke-linejoin="round">
    <path d="M10 19 L32 6 L54 19"/>
    <path d="M10 19 L10 32"/>
    <path d="M54 19 L54 32"/>
    <path d="M32 32 L10 19"/>
    <path d="M32 32 L32 6"/>
    <path d="M32 32 L54 19"/>
  </g>
  <g fill="none" stroke="#FF1F1F" stroke-width="2.4" stroke-linecap="round" stroke-linejoin="round">
    <path d="M10 45 L32 58 L54 45"/>
    <path d="M10 32 L10 45"/>
    <path d="M54 32 L54 45"/>
    <path d="M32 32 L10 45"/>
    <path d="M32 32 L32 58"/>
    <path d="M32 32 L54 45"/>
  </g>
  <g fill="#F4F4F5">
    <circle cx="32" cy="6" r="2.6"/>
    <circle cx="10" cy="19" r="2.6"/>
    <circle cx="54" cy="19" r="2.6"/>
  </g>
  <g fill="#FF1F1F">
    <circle cx="10" cy="45" r="2.6"/>
    <circle cx="54" cy="45" r="2.6"/>
    <circle cx="32" cy="58" r="2.6"/>
  </g>
  <circle cx="32" cy="32" r="3.4" fill="#FFFFFF"/>
</svg>
